<svg id="svg" xmlns="http://www.w3.org/2000/svg" xmlns:xlink="http://www.w3.org/1999/xlink" width="400" height="400.81632653061223" viewBox="0, 0, 400,400.81632653061223"><g id="svgg"><path id="path0" d="M171.532 140.510 L 31.024 281.020 24.725 304.898 C 11.159 356.319,1.923 391.924,0.241 399.286 C -0.186 401.155,-3.029 401.830,73.673 381.837 C 97.245 375.693,117.082 370.542,117.755 370.389 C 118.680 370.180,153.328 335.775,259.490 229.649 L 400.000 89.185 400.000 76.530 L 400.000 63.876 368.060 31.938 L 336.121 0.000 324.080 -0.000 L 312.040 -0.000 171.532 140.510 M355.407 44.591 L 382.041 71.222 382.041 76.531 L 382.041 81.840 365.407 98.471 L 348.773 115.101 317.141 83.461 L 285.510 51.821 300.000 37.418 C 319.846 17.691,319.427 18.010,325.509 17.977 L 328.773 17.959 355.407 44.591 M228.061 235.816 L 120.001 343.876 88.367 312.245 L 56.734 280.614 164.795 172.552 L 272.857 64.490 304.489 96.123 L 336.122 127.755 228.061 235.816 M100.509 349.930 C 103.668 353.309,104.505 354.432,104.068 354.702 C 101.763 356.127,25.734 376.074,25.084 375.425 C 24.929 375.269,25.574 372.148,26.518 368.489 C 28.945 359.086,41.136 312.813,43.731 303.155 L 45.900 295.086 71.139 320.298 C 85.021 334.165,98.237 347.499,100.509 349.930 " stroke="none" fill="#000000" fill-rule="evenodd"></path></g></svg>